<svg id="box" xmlns="http://www.w3.org/2000/svg" width="59.926" height="59.44" viewBox="0 0 59.926 59.44">
  <path id="Path_27" data-name="Path 27" d="M138.973,178.954a28.017,28.017,0,0,1-27.985,27.986,27.725,27.725,0,0,1-16.09-5.086l3.912-5.31a.966.966,0,0,0-.9-1.532l-9.357,1.215a.967.967,0,0,0-.828,1.124l1.612,9.3a.966.966,0,0,0,1.73.408l2.686-3.646A29.927,29.927,0,0,0,138.6,167.429a.966.966,0,1,0-1.783.746,27.8,27.8,0,0,1,2.153,10.779ZM92.78,201.47l-.008.01-.012.018-1.908,2.589L89.8,198.014l6.111-.794Z" transform="translate(-80.981 -149.426)" fill="#fff"/>
  <path id="Path_28" data-name="Path 28" d="M42.183,82.781a.967.967,0,0,0,.891-1.339A27.99,27.99,0,0,1,85,47.762l-3.912,5.31a.966.966,0,0,0,.9,1.532l9.357-1.215a.966.966,0,0,0,.828-1.124l-1.612-9.3a.966.966,0,0,0-1.73-.408l-2.686,3.646A29.927,29.927,0,0,0,41.291,82.187.967.967,0,0,0,42.183,82.781ZM87.114,48.146l.008-.01.012-.018,1.908-2.589L90.095,51.6l-6.111.794Z" transform="translate(-38.987 -40.749)" fill="#fff"/>
  <path id="Path_29" data-name="Path 29" d="M141.742,146.323a.966.966,0,0,0,.967,0l17.259-9.964a.967.967,0,0,0,.483-.837V115.593a.966.966,0,0,0-.483-.837l-17.259-9.964a.966.966,0,0,0-.967,0l-17.259,9.964a.966.966,0,0,0-.483.837v19.929a.967.967,0,0,0,.483.837Zm16.776-11.359-15.326,8.848v-17.7l15.326-8.848Zm-.968-19.371-15.325,8.848-6.866-3.964,15.325-8.848Zm-15.325-8.848,6.526,3.768-15.325,8.848-6.526-3.768Zm-16.292,10.521,15.326,8.848v17.7l-15.326-8.848Z" transform="translate(-112.262 -95.838)" fill="#fff"/>
</svg>
