<svg xmlns="http://www.w3.org/2000/svg" width="65.829" height="61.66" viewBox="0 0 65.829 61.66">
  <path id="box-4" d="M83.95,53.026l-4.151-.4a18.547,18.547,0,0,0-2.094-4.975l2.641-3.189a.972.972,0,0,0-.057-1.3l-4.551-4.609a.972.972,0,0,0-1.312-.066l-3.2,2.646a18.944,18.944,0,0,0-4.969-2.1l-.4-4.152a.973.973,0,0,0-.968-.88H58.36a.973.973,0,0,0-.968.88l-.4,4.151a18.545,18.545,0,0,0-4.975,2.094l-3.189-2.641a.972.972,0,0,0-1.308.061l-4.609,4.609a.972.972,0,0,0-.061,1.307l2.646,3.2c-.06.1-.118.2-.177.3l-3.994-2.305a.972.972,0,0,0-.972,0L19.486,57.7a.972.972,0,0,0-.486.842v24.1a.972.972,0,0,0,.486.842L40.353,95.53a.972.972,0,0,0,.972,0l20.9-12.048a1,1,0,0,0,.52-.842V80.524h2.148a.974.974,0,0,0,.968-.88l.4-4.151A18.548,18.548,0,0,0,71.237,73.4l3.189,2.64a.972.972,0,0,0,1.307-.061l4.609-4.609a.972.972,0,0,0,.061-1.308l-2.646-3.2a18.945,18.945,0,0,0,2.1-4.97l4.093-.4a.972.972,0,0,0,.878-.968V53.995A.972.972,0,0,0,83.95,53.026ZM40.839,47.62,49.123,52.4,30.2,63.326l-8.283-4.782ZM39.832,93,20.944,82.079V60.227L39.832,71.152Zm1.008-23.536-8.694-5.019L51.067,53.525l8.694,5.02ZM60.8,82.079,41.776,93V71.152L60.8,60.227ZM62.227,57.7,51.418,51.472a11.759,11.759,0,1,1,11.33,17.49V58.545a1,1,0,0,0-.52-.842Zm20.658,1.944-3.907.381a.972.972,0,0,0-.856.762,17.021,17.021,0,0,1-2.376,5.63.972.972,0,0,0,.068,1.147l2.528,3.052-3.357,3.358-3.052-2.528a.972.972,0,0,0-1.159-.06,16.511,16.511,0,0,1-5.617,2.368.974.974,0,0,0-.762.858l-.382,3.965H62.747V70.917A13.7,13.7,0,1,0,49.726,50.5l-2.718-1.567c.16-.279.326-.557.5-.83a.972.972,0,0,0-.069-1.147L44.913,43.9l3.357-3.358,3.052,2.528a.972.972,0,0,0,1.159.06A16.509,16.509,0,0,1,58.1,40.767a.973.973,0,0,0,.762-.858l.382-3.965h4.769l.382,3.965a.972.972,0,0,0,.762.858,17.023,17.023,0,0,1,5.63,2.376.972.972,0,0,0,1.147-.068L74.98,40.55l3.307,3.35-2.531,3.057a.972.972,0,0,0-.06,1.159,16.511,16.511,0,0,1,2.367,5.617.972.972,0,0,0,.857.762l3.964.382Z" transform="translate(-19 -34)" fill="#fff"/>
</svg>
