<svg id="distribution" xmlns="http://www.w3.org/2000/svg" width="59.818" height="59.55" viewBox="0 0 59.818 59.55">
  <path id="Path_17" data-name="Path 17" d="M300.264,152h-17.2a.867.867,0,0,0-.637.244l-4.173,4.271a.873.873,0,0,0-.251.606c0,.011,0,.015,0,.027v4.067a.889.889,0,0,0,.094.4s.021.008.023.011a3.622,3.622,0,0,0,2.8,1.986v10.231a3.156,3.156,0,0,0,3.164,3.178h15.009a3.156,3.156,0,0,0,3.164-3.178v-10.23a3.622,3.622,0,0,0,2.8-1.988.909.909,0,0,0,.117-.408v-4.092c0-.005,0-.011,0-.016s0-.019,0-.029a.886.886,0,0,0-.009-.092c0-.008,0-.016,0-.024a.871.871,0,0,0-.028-.113l0-.011a.907.907,0,0,0-.04-.1l-.01-.021a.856.856,0,0,0-.059-.1l-.009-.013a.891.891,0,0,0-.066-.081l-.01-.013-4.026-4.258A.866.866,0,0,0,300.264,152Zm-10.2,23.241h-2.794v-4.191h2.794Zm10.414-1.4a1.376,1.376,0,0,1-1.385,1.4h-7.251v-5.07a.85.85,0,0,0-.831-.9h-4.618a.907.907,0,0,0-.9.9v5.07h-1.409a1.376,1.376,0,0,1-1.385-1.4v-10.4a3.454,3.454,0,0,0,1.287-.781,3.762,3.762,0,0,0,5.066.017,3.7,3.7,0,0,0,5.076,0,3.739,3.739,0,0,0,5.063-.012,3.443,3.443,0,0,0,1.288.778Zm2.921-12.863a1.971,1.971,0,0,1-3.4-.172.889.889,0,0,0-.79-.48h0a.89.89,0,0,0-.79.481,1.97,1.97,0,0,1-3.495.01.889.889,0,0,0-.789-.491.9.9,0,0,0-.8.481,1.97,1.97,0,0,1-3.5,0s0,.019-.007.014a.864.864,0,0,0-.783-.439h-.008a.858.858,0,0,0-.782.452,1.973,1.973,0,0,1-3.5-.021.889.889,0,0,0-1.58,0,1.972,1.972,0,0,1-3.4.17v-3.011H303.4ZM281,156.187l2.441-2.413h16.441l2.355,2.413Z" transform="translate(-245.361 -135.583)" fill="#fff"/>
  <path id="Path_18" data-name="Path 18" d="M385,244h0Z" transform="translate(-338.773 -215.903)" fill="#fff"/>
  <path id="Path_19" data-name="Path 19" d="M405.318,270h-3.429a.889.889,0,0,0-.889.889v3.429a.889.889,0,0,0,.889.889h3.429a.889.889,0,0,0,.889-.889v-3.429a.889.889,0,0,0-.889-.889Zm-.889,3.429h-1.651v-1.651h1.651Z" transform="translate(-352.74 -238.601)" fill="#fff"/>
  <path id="Path_20" data-name="Path 20" d="M188.041,34.313a.889.889,0,0,0,.318.927l3.119,2.4a.889.889,0,0,0,1.269-.192l2.267-3.218a.889.889,0,0,0-.86-1.391l-1.407.213A12.97,12.97,0,0,0,168.064,30.8a.889.889,0,1,0,1.645.675,11.192,11.192,0,0,1,21.278,1.843l-2.219.337a.889.889,0,0,0-.727.656Zm4.1.631h0l.009,0,.207-.031-.533.756-.733-.565Z" transform="translate(-149.329 -22.768)" fill="#fff"/>
  <path id="Path_21" data-name="Path 21" d="M174.637,393.284a.889.889,0,0,0-.591-.781l-3.712-1.31a.889.889,0,0,0-1.146.578l-1.151,3.764a.889.889,0,0,0,1.251,1.054l1.27-.641a12.966,12.966,0,0,0,24.154-5.556.889.889,0,0,0-1.773-.129,11.192,11.192,0,0,1-20.792,4.883l2-1.011A.889.889,0,0,0,174.637,393.284Zm-4.092.679,0,0-.006,0-.188.095.271-.885.872.308Z" transform="translate(-149.33 -342.871)" fill="#fff"/>
  <path id="Path_22" data-name="Path 22" d="M21.893,166.521a.807.807,0,0,0,.489-.165l2.05-1.482v14.715a.911.911,0,0,0,.942.858H46.35a.911.911,0,0,0,.942-.858V164.869l2.049,1.485a.873.873,0,0,0,1.227-.206.89.89,0,0,0-.212-1.24L36.4,154.927a.892.892,0,0,0-1.035,0l-13.99,9.981a.889.889,0,0,0,.517,1.613Zm19.049,12.147H30.782v-1.143h10.16Zm0-2.921H30.782v-1.4h10.16Zm0-3.175H30.782v-1.524h10.16Zm0-3.3H30.782v-1.4h10.16ZM26.21,163.6l9.67-6.862,9.634,6.855v15.071H42.721v-11.71a.893.893,0,0,0-.918-.864H29.923a.893.893,0,0,0-.918.864v11.71H26.21Z" transform="translate(-21.004 -137.998)" fill="#fff"/>
</svg>
