<svg xmlns="http://www.w3.org/2000/svg" width="62.593" height="40.345" viewBox="0 0 62.593 40.345">
  <path id="cargo" d="M72.7,116.395H67.075V98.936A.885.885,0,0,0,66.237,98H48.968a3.489,3.489,0,0,0-3.4,2.894l-2.751,15.5h-3.79a6.15,6.15,0,0,0-5.629,3.7H29.9v-3.713a.941.941,0,0,0-.955-.885h-4.2a.85.85,0,0,0-.85.885v11.505H13.975a.867.867,0,0,0-.731.35l-2.085,2.948a.909.909,0,0,0,.731,1.428H28.947a.978.978,0,0,0,.955-.928v-2.01H32.84v1.383a.965.965,0,0,0,.953.916h3.3a6.7,6.7,0,0,0,13.375,0h6.457a6.7,6.7,0,0,0,13.377-.037,3.777,3.777,0,0,0,3.289-3.807v-10.9A.847.847,0,0,0,72.7,116.395ZM28.114,130.829h-14.5l.826-1.15H24.748a.984.984,0,0,0,.939-.953V117.289h2.427Zm4.726-8.359v5.421H29.9v-6h3.03A3.22,3.22,0,0,0,32.84,122.47Zm14.492-21.3a1.668,1.668,0,0,1,1.635-1.38H65.286v16.606H60.432V104.536a.955.955,0,0,0-.943-.915H46.9Zm-.753,4.24H58.644v10.986H44.638Zm-2.8,31.126a5.264,5.264,0,1,1,4.931-5.253A5.105,5.105,0,0,1,43.778,136.535Zm19.832,0a5.264,5.264,0,1,1,4.931-5.253A5.105,5.105,0,0,1,63.611,136.535Zm8.19-8.4a2,2,0,0,1-1.561,2,6.675,6.675,0,0,0-13.263.053H50.413a6.676,6.676,0,0,0-13.268,0H34.629v-7.72a4.351,4.351,0,0,1,4.4-4.287H71.8Z" transform="translate(-10.996 -98)" fill="#fff"/>
</svg>
