<svg xmlns="http://www.w3.org/2000/svg" width="26.081" height="41.759" viewBox="0 0 26.081 41.759">
  <path id="cos_tam" data-name="cos tam" d="M6635.4,7883.448a13.041,13.041,0,0,0-13.041,13.041c0,13.04,13.041,28.718,13.041,28.718s13.04-15.668,13.04-28.718A13.04,13.04,0,0,0,6635.4,7883.448Zm0,21.042a7.992,7.992,0,1,1,7.992-7.992A7.992,7.992,0,0,1,6635.4,7904.49Zm-5.059-7.992a5.058,5.058,0,1,0,5.059-5.058A5.058,5.058,0,0,0,6630.346,7896.5Z" transform="translate(-6622.363 -7883.448)" fill="#fff"/>
</svg>
