<svg id="poczta" xmlns="http://www.w3.org/2000/svg" width="46.083" height="32.92" viewBox="0 0 46.083 32.92">
  <path id="Path_7" data-name="Path 7" d="M474.234,389.954l-5.712-4.994L452.2,398.931a3.264,3.264,0,0,0,2.269.9h39.456a3.313,3.313,0,0,0,2.269-.9L479.872,384.96Z" transform="translate(-451.188 -366.909)" fill="#fff"/>
  <path id="Path_8" data-name="Path 8" d="M496.238,363.738a3.313,3.313,0,0,0-2.277-.9H454.489a3.264,3.264,0,0,0-2.269.906l22.034,18.843Z" transform="translate(-451.192 -362.84)" fill="#fff"/>
  <path id="Path_9" data-name="Path 9" d="M0,3.54V30.886L15.913,17.372Z" transform="translate(0 -0.651)" fill="#fff"/>
  <path id="Path_10" data-name="Path 10" d="M36.98,17.37l15.9,13.514V3.53Z" transform="translate(-6.802 -0.649)" fill="#fff"/>
</svg>
