<svg xmlns="http://www.w3.org/2000/svg" width="41.779" height="41.792" viewBox="0 0 41.779 41.792">
  <path id="telefon" d="M415.9,339.607a1.976,1.976,0,0,1-.623,1.769l-5.88,5.84a3.339,3.339,0,0,1-1.038.751,4.279,4.279,0,0,1-1.265.405h-.84a21.181,21.181,0,0,1-2.718-.287,20.338,20.338,0,0,1-4.6-1.413,38.7,38.7,0,0,1-6.176-3.39,46.221,46.221,0,0,1-7.343-6.186,48.175,48.175,0,0,1-5.129-5.84,41.008,41.008,0,0,1-3.271-5.159,26.316,26.316,0,0,1-1.858-4.289,21.463,21.463,0,0,1-.84-3.32,10.874,10.874,0,0,1-.178-2.184q0-.8,0-.889a4.59,4.59,0,0,1,.4-1.255,3.25,3.25,0,0,1,.761-1.038l5.88-5.929a1.976,1.976,0,0,1,1.413-.613,1.67,1.67,0,0,1,.988.326,3.144,3.144,0,0,1,.751.82l4.734,8.983a2.125,2.125,0,0,1,.217,1.542,2.7,2.7,0,0,1-.751,1.423l-2.164,2.164a.841.841,0,0,0-.158.287,1.207,1.207,0,0,0-.059.336,7.907,7.907,0,0,0,.791,2.115,19.156,19.156,0,0,0,1.64,2.589,27.469,27.469,0,0,0,3.143,3.518,28.815,28.815,0,0,0,3.538,3.162,19.861,19.861,0,0,0,2.589,1.66,6.915,6.915,0,0,0,1.591.642l.553.109a.989.989,0,0,0,.287-.069.7.7,0,0,0,.287-.148l2.52-2.569a2.7,2.7,0,0,1,1.858-.712,2.3,2.3,0,0,1,1.2.267h0l8.538,5.05a2.2,2.2,0,0,1,1.216,1.532Z" transform="translate(-374.148 -306.58)" fill="#fff"/>
</svg>
