<svg id="box-3" xmlns="http://www.w3.org/2000/svg" width="56.092" height="49.859" viewBox="0 0 56.092 49.859">
  <path id="Path_30" data-name="Path 30" d="M82.418,56H35.673A4.643,4.643,0,0,0,31,60.58v8.982a.949.949,0,0,0,.934.9h2.307v30.82a4.552,4.552,0,0,0,4.567,4.58H79.283a4.552,4.552,0,0,0,4.567-4.58V70.459h2.307a.949.949,0,0,0,.934-.9V60.58A4.643,4.643,0,0,0,82.418,56Zm-.312,45.279a2.805,2.805,0,0,1-2.822,2.835H38.808a2.805,2.805,0,0,1-2.822-2.835V70.459h46.12Zm3.241-32.565h-52.6V60.58a2.9,2.9,0,0,1,2.928-2.835H82.418a2.9,2.9,0,0,1,2.928,2.835Z" transform="translate(-31 -56)" fill="#fff"/>
  <path id="Path_31" data-name="Path 31" d="M161.409,231.218H175.17a5.609,5.609,0,0,0,0-11.218H161.409a5.609,5.609,0,0,0,0,11.218Zm0-9.473H175.17a3.864,3.864,0,1,1,0,7.728H161.409a3.864,3.864,0,0,1,0-7.728Z" transform="translate(-140.244 -199.558)" fill="#fff"/>
</svg>
