<svg xmlns="http://www.w3.org/2000/svg" width="45.403" height="59.921" viewBox="0 0 45.403 59.921">
  <g id="Group_29" data-name="Group 29" transform="translate(-157.299 -2475.627)">
    <path id="Path_15" data-name="Path 15" d="M125.825,38.239h-6.8a5.074,5.074,0,0,0-5.017-4.224h-1.571A5.1,5.1,0,0,0,107.366,29H106.1a5.1,5.1,0,0,0-5.076,5.015H99.455a5.013,5.013,0,0,0-3.59,1.453,4.952,4.952,0,0,0-1.427,2.77h-6.86A3.625,3.625,0,0,0,84,41.855V85.342a3.593,3.593,0,0,0,3.578,3.579h38.248a3.593,3.593,0,0,0,3.578-3.579V41.855A3.625,3.625,0,0,0,125.825,38.239ZM106.1,30.848h1.263a3.224,3.224,0,0,1,2.284.962,3.315,3.315,0,0,1,.944,2.206h-7.719A3.276,3.276,0,0,1,106.1,30.848Zm-9.827,8.231a3.176,3.176,0,0,1,3.181-3.216h14.556a3.237,3.237,0,0,1,3.249,3.216v4.751H96.275Zm-.949,6.6h22.84a.945.945,0,0,0,.662-.271.933.933,0,0,0,.28-.653v-.708h2.376V81H91.919V44.046h2.508v.708a.9.9,0,0,0,.9.924Zm32.229,39.664a1.743,1.743,0,0,1-1.73,1.732H87.578a1.743,1.743,0,0,1-1.73-1.732V41.855a1.776,1.776,0,0,1,1.73-1.769h6.849V42.2H90.961a.9.9,0,0,0-.89.934V81.949a.876.876,0,0,0,.89.9h31.48a.876.876,0,0,0,.89-.9V43.132a.9.9,0,0,0-.89-.934h-3.333V40.087h6.717a1.776,1.776,0,0,1,1.73,1.769Z" transform="translate(73.299 2446.627)" fill="#fff"/>
    <path id="Path_16" data-name="Path 16" d="M189.371,263.868a.924.924,0,0,0,1.291.271l12.671-8.447a.924.924,0,1,0-1.025-1.537l-11.887,7.925-3.716-5.806a.924.924,0,1,0-1.556,1Z" transform="translate(-14.374 2251.324)" fill="#fff"/>
  </g>
</svg>
