<svg id="logistic" xmlns="http://www.w3.org/2000/svg" width="60.302" height="61.099" viewBox="0 0 60.302 61.099">
  <path id="Path_23" data-name="Path 23" d="M71,197.93v17.134a.93.93,0,0,0,.93.93H92.783a.93.93,0,0,0,.93-.93V197.93a.93.93,0,0,0-.93-.93H71.93A.93.93,0,0,0,71,197.93Zm9.165.93h4.25v3.6l-1.774-.767a.886.886,0,0,0-.719,0l-1.757.767Zm-7.305,0h5.446v5.01a.907.907,0,0,0,1.272.854l2.7-1.169,2.7,1.169a.926.926,0,0,0,1.293-.854v-5.01h5.579v15.275H72.86Z" transform="translate(-65.421 -174.287)" fill="#fff"/>
  <path id="Path_24" data-name="Path 24" d="M273,197.93v17.134a.93.93,0,0,0,.93.93h21.517a.93.93,0,0,0,.93-.93V197.93a.93.93,0,0,0-.93-.93H273.93A.93.93,0,0,0,273,197.93Zm9.3.93h4.914v3.651l-2.149-.837a.852.852,0,0,0-.643,0l-2.123.837Zm-7.438,0h5.579v5.01a.892.892,0,0,0,1.224.867l3.076-1.2,3.079,1.2a.921.921,0,0,0,1.254-.867v-5.01h5.579v15.275H274.86Z" transform="translate(-240.591 -174.287)" fill="#fff"/>
  <path id="Path_25" data-name="Path 25" d="M190.447,26H168.93a.93.93,0,0,0-.93.93V44.064a.93.93,0,0,0,.93.93h21.518a.93.93,0,0,0,.93-.93V26.93A.93.93,0,0,0,190.447,26ZM177.3,27.86h4.782v3.562L180,30.592a.808.808,0,0,0-.631,0l-2.067.83Zm12.22,15.275H169.86V27.86h5.579v4.926a.887.887,0,0,0,1.221.865l3.037-1.2,3.042,1.2a.917.917,0,0,0,.337.064.827.827,0,0,0,.491-.162.9.9,0,0,0,.372-.768V27.86h5.579Z" transform="translate(-149.537 -26)" fill="#fff"/>
  <path id="Path_26" data-name="Path 26" d="M80.8,371.86h7.571a.93.93,0,0,0,0-1.86H29.93a.93.93,0,0,0,0,1.86H37.5v11.688H29.93a.93.93,0,0,0,0,1.86H88.372a.93.93,0,0,0,0-1.86H80.8Zm-1.86,7.064v4.625h-8.5v-4.625a.93.93,0,1,0-1.86,0v4.625h-8.5v-4.625a.93.93,0,1,0-1.86,0v4.625h-8.5v-4.625a.93.93,0,1,0-1.86,0v4.625h-8.5V371.86h3.453v4.665a.93.93,0,1,0,1.86,0V371.86h8.5v4.665a.93.93,0,1,0,1.86,0V371.86h8.5v4.665a.93.93,0,1,0,1.86,0V371.86h8.5v4.665a.93.93,0,1,0,1.86,0V371.86h3.188Z" transform="translate(-29 -324.309)" fill="#fff"/>
</svg>
